<?xml version="1.0"?>
<svg xmlns="http://www.w3.org/2000/svg" height="663pt" width="1143pt" viewBox="0 0 1143 663">
 <path d="m445.15 32.279c-12.53 0.568-14.38 4.321-27.58 11.584-26.47 14.566-29.58 17.156-53.69 37.187-45.24 37.57-103.63 101.45-119.26 129.57-18.77 33.81-2.64 50.8 5.52 61.64-2.29 5.79-26 22.4-12.53 18.69 7.51-2.08 11.39-10.67 16.59-15.44 5.25 3.87 14.05 9.28 22.05 16.44-60.52 78.11-90.97 176.77-106.81 279.42-3.24 20.98-1.02 41.48 3.8 57.25 3.62 11.88 15.05 18.1 23.38 17.62 19.39-1.1 28.98-8.37 42.08-20.76 48.51-45.92 78.16-114.67 91.25-183.93 8.94-47.31 2.35-107.42-43.25-151.62 5.59-10.07 12.56-14.32 19.2-19.59 4.83 14.4 13.81 17.73 18.21 19.22 22.26 7.54 56.84-3.5 80.12-25.64 11.01-10.46 12.72-10.56 19.35-18.26-25.03 28.39-40.83 88.66 8.17 74.11 14.83-4.4 39.38-26.8 48.02-33.2-0.9 5.83-6.03 16.58 4.68 22.76 40.89 23.61 74.05-41.32 74.82-29.99-28.65 43.86-6.36 70.31 29.31 53.54 7.97 5.51 24.22 0.15 32.25-5.24 21.43-19.13 50.23-50.65 81.77-73.19 11.21-11.41 24.22-21.83 7.83 0.1-24.54 32.82-68.3 81.09-46.43 86.95 21.27 5.7 71.95-27.36 101.22-46.7 18.65-12.32 30.66-23.68 15.6 5.02-23.14 44.13-15.96 97.31 65.83 77.29 54.69-13.39 94-35.6 136.23-57.63 33.02-17.22 74.62-63.85 80.92-81.71 2.4-3.67 6.3-16.78 4.6-15.86-1.6 1.28-4.8 11.97-5.3 12.65-45.4 69.77-90.43 88.06-162.88 118.76-33.86 14.36-93.84 27.57-111.17 11.48-19.42-18.03-10.1-52.19 3.51-75.42 4.59-7.83 36.58-32.46 16.55-30.38-9.16 0.96-86.69 63.64-116.43 69.44-10.65 2.07-37.37 15.62-17.46-12.68 46-65.36 95.93-121.73 153.56-168.16-0.17-24.97-56.67 42.58-80.3 60.25-40.05 29.94-72.28 61.38-113.89 101.51-12.31 11.87-25.43 17.93-30.21 14.08 12.11-9.55 10.17-11.29-1.8-3.51-0.54-3.89 1.35-10.33 6.72-19.81 13.85-24.43 38.61-59.6 56.65-78.52 6.93-7.27 13.68-0.04 10.97-10.15-13.01-10.68-48.18 43.67-77.1 89.87-6.27 10.04-8.1 16.95-10.61 22.31-18.44 13.02-43.02 6.43-30.67-24.18 8.34-20.66 10.78-24.96 6.14-25.98-19.4-4.27-30.59 40.14-67.42 30.27-30.73-8.24 14.4-35.03 10.22-42.69-2.93-5.38-10.65 3.98-16.95 10.11-36.42 35.42-91.35 60.05-80.88 21.7 12.67-46.36 37.57-59.98 27.13-66.01-11.96 3.39-38.73 45.11-52.57 41.39 6.73-10.17 17.44-17.88 25.32-28.34 20.52-27.21 42.33-42.39 40.69-59.31-2.07-21.29-21.22-26.02-42.28-22.62-23.06 3.73-59.94 30.41-74.73 46.6-10.24 9.02-23.63 38.55-27.38 54.35-11.66 10.66-14.07 16.38-25.66 26.24-5.56-4.5-11.34-8.13-18.82-15.44 36.47-32.14 72.03-69.47 103.97-100.87 35.82-35.79 80.11-81.685 91.33-120.7 3.67-13.083-1.25-16.336-11.5-15.871zm-0.25 10.046c17.02 3.951-36.99 74.095-45.12 81.895-64.38 61.82-104.9 114.15-141.71 141.66-9.76-7.45-16.6-24.3-13.37-35.54 3.15-10.95 11.98-25.49 20.2-35.96 35.86-45.68 89.46-99.158 144-138.3 15.59-7.615 21.19-12.653 36-13.755zm-25.26 120.82c56.95 10.26-10.79 63.7-29.54 86.28-14.34 17.28-50.34 46.16-34.98-1.4 3.71-11.47-6.86-13.4-13.47-11.72-13.27 3.38-29.63 20.16-15.5-5.05 19.06-33.99 77.87-70.93 93.49-68.11zm-72.67 80.48c-3.29 14.57-4.21 23.18 0.81 37.51-11.04 0.82-10.42 3.07-25.8-4.21-18.74-12.36 11.73-34.31 24.99-33.3zm-65.8 53.79c11.72 7.24 40.29 38.48 44.61 90.39 4.68 76.25-29.87 159.46-79.68 221.18-8.36 10.36-16.24 17.88-31.2 28.32-6.06 4.23-20.55 6.62-24.43 3.69-11.31-8.53-12.12-12.36-14.17-20.89-3.12-12.99-1.99-28.31-0.65-40.4 10.73-96.87 38.87-190.56 94.14-269.27 7.2-10.24 7.43-12.78 11.38-13.02z"/>
 <path d="m249.69 73.68c32.08-12.773 16.14 25.471 8.48 40.29-16.85 32.59-33.28 65.01-50.57 97.47-12.96 24.34-24.49 49.21-35.29 74.29-10.91 25.29-21.63 50.8-31.05 76.87-14.57 40.32-29.37 80.46-44.224 120.61-10.664 28.83-19.305 58.46-30.031 87.29-7.271 19.55-11.317 40.53-21.214 58.95-16.385 3.16 0.94-27.26 4.701-35.79 7.699-17.45 13.172-35.94 19.172-54.14 7.158-21.7 14.203-43.63 22.086-64.81 11.89-31.96 23.79-63.91 35.32-96.01 10.12-28.19 22.15-55.89 33.88-83.58 13.8-32.56 28.25-65.21 44.86-97.39 18.62-36.09 40.5-70.45 53.91-109.22 7.24-20.931-26.96 1.074-35.89 5.998-16.22 8.952-32.84 17.542-48.24 28.092-32.98 22.58-64.24 48.12-90.758 78.46-12.457 14.25-14.979 46.88-19.429 23.82 7.973-27.71 32.577-50.69 53.747-68.76 21.65-18.48 44.59-35.56 68.99-49.99 20.07-11.873 39.18-25.311 61.55-32.45z"/>
</svg>
